HIERARCHY
ROOT Hips
{
	OFFSET 0.000000 0.000000 0.000000
	CHANNELS 6 Xposition Yposition Zposition Zrotation Yrotation Xrotation 
	JOINT LHipJoint
	{
		OFFSET 0.000000 0.000000 0.000000
		CHANNELS 3 Zrotation Yrotation Xrotation
		JOINT LeftUpLeg
		{
			OFFSET 1.363060 -1.794630 0.839290
			CHANNELS 3 Zrotation Yrotation Xrotation
			JOINT LeftLeg
			{
				OFFSET 2.448110 -6.726130 0.000000
				CHANNELS 3 Zrotation Yrotation Xrotation
				JOINT LeftFoot
				{
					OFFSET 2.562200 -7.039590 0.000000
					CHANNELS 3 Zrotation Yrotation Xrotation
					JOINT LeftToeBase
					{
						OFFSET 0.157640 -0.433110 2.322550
						CHANNELS 3 Zrotation Yrotation Xrotation
						End Site
						{
							OFFSET 0.000000 0.000000 0.000000
						}
					}
				}
			}
		}
	}
	JOINT RHipJoint
	{
		OFFSET 0.000000 0.000000 0.000000
		CHANNELS 3 Zrotation Yrotation Xrotation
		JOINT RightUpLeg
		{
			OFFSET -1.305520 -1.794630 0.839290
			CHANNELS 3 Zrotation Yrotation Xrotation
			JOINT RightLeg
			{
				OFFSET -2.542530 -6.985550 0.000000
				CHANNELS 3 Zrotation Yrotation Xrotation
				JOINT RightFoot
				{
					OFFSET -2.568260 -7.056230 0.000000
					CHANNELS 3 Zrotation Yrotation Xrotation
					JOINT RightToeBase
					{
						OFFSET -0.164730 -0.452590 2.363150
						CHANNELS 3 Zrotation Yrotation Xrotation
						End Site
						{
							OFFSET 0.000000 0.000000 0.000000
						}
					}
				}
			}
		}
	}
	JOINT LowerBack
	{
		OFFSET 0.000000 0.000000 0.000000
		CHANNELS 3 Zrotation Yrotation Xrotation
		JOINT Spine
		{
			OFFSET 0.028270 2.035590 -0.193380
			CHANNELS 3 Zrotation Yrotation Xrotation
			JOINT Spine1
			{
				OFFSET 0.056720 2.048850 -0.042750
				CHANNELS 3 Zrotation Yrotation Xrotation
				JOINT Neck
				{
					OFFSET 0.000000 0.000000 0.000000
					CHANNELS 3 Zrotation Yrotation Xrotation
					JOINT Neck1
					{
						OFFSET -0.054170 1.746240 0.172020
						CHANNELS 3 Zrotation Yrotation Xrotation
						JOINT Head
						{
							OFFSET 0.104070 1.761360 -0.123970
							CHANNELS 3 Zrotation Yrotation Xrotation
							End Site
							{
								OFFSET 0.000000 0.000000 0.000000
							}
						}
					}
				}
				JOINT LeftShoulder
				{
					OFFSET 0.000000 0.000000 0.000000
					CHANNELS 3 Zrotation Yrotation Xrotation
					JOINT LeftArm
					{
						OFFSET 3.362410 1.200890 -0.311210
						CHANNELS 3 Zrotation Yrotation Xrotation
						JOINT LeftForeArm
						{
							OFFSET 4.983000 -0.000000 -0.000000
							CHANNELS 3 Zrotation Yrotation Xrotation
							JOINT LeftHand
							{
								OFFSET 3.483560 -0.000000 -0.000000
								CHANNELS 3 Zrotation Yrotation Xrotation
								JOINT LeftFingerBase
								{
									OFFSET 0.000000 0.000000 0.000000
									CHANNELS 3 Zrotation Yrotation Xrotation
									JOINT LeftHandIndex1
									{
										OFFSET 0.715260 -0.000000 -0.000000
										CHANNELS 3 Zrotation Yrotation Xrotation
										End Site
										{
											OFFSET 0.000000 0.000000 0.000000
										}
									}
								}
								JOINT LThumb
								{
									OFFSET 0.000000 0.000000 0.000000
									CHANNELS 3 Zrotation Yrotation Xrotation
									End Site
									{
										OFFSET 0.000000 0.000000 0.000000
									}
								}
							}
						}
					}
				}
				JOINT RightShoulder
				{
					OFFSET 0.000000 0.000000 0.000000
					CHANNELS 3 Zrotation Yrotation Xrotation
					JOINT RightArm
					{
						OFFSET -3.136600 1.374050 -0.404650
						CHANNELS 3 Zrotation Yrotation Xrotation
						JOINT RightForeArm
						{
							OFFSET -5.241900 -0.000000 -0.000000
							CHANNELS 3 Zrotation Yrotation Xrotation
							JOINT RightHand
							{
								OFFSET -3.444170 -0.000000 -0.000000
								CHANNELS 3 Zrotation Yrotation Xrotation
								JOINT RightFingerBase
								{
									OFFSET 0.000000 0.000000 0.000000
									CHANNELS 3 Zrotation Yrotation Xrotation
									JOINT RightHandIndex1
									{
										OFFSET -0.622530 -0.000000 -0.000000
										CHANNELS 3 Zrotation Yrotation Xrotation
										End Site
										{
											OFFSET 0.000000 0.000000 0.000000
										}
									}
								}
								JOINT RThumb
								{
									OFFSET 0.000000 0.000000 0.000000
									CHANNELS 3 Zrotation Yrotation Xrotation
									End Site
									{
										OFFSET 0.000000 0.000000 0.000000
									}
								}
							}
						}
					}
				}
			}
		}
	}
}
MOTION
Frames: 6
Frame Time: 0.008333
-0.459850 16.812402 0.528512 24.059752 76.831789 34.980066 -10.953317 3.659215 -1.387258 -2.369515 11.104052 -8.144962 0.204822 2.231201 43.196651 1.406345 0.485196 25.715253 -0.474200 -0.000000 -70.358300 8.366128 -0.662564 2.968658 17.054810 4.679650 -31.176315 2.661837 0.857327 10.548386 -2.919650 -9.365974 -13.386189 0.304400 0.000000 -0.928500 -0.233532 -3.772889 -1.799751 -0.729791 -3.868556 -3.169425 -6.957736 -3.938446 0.949103 9.612844 -7.361852 -6.640499 -4.384748 -0.348662 0.249890 0.000000 0.000000 0.000000 -5.302021 5.323737 1.528154 -57.542098 3.086842 14.724433 -2.841777 -38.250379 0.001866 7.159879 0.570409 0.037683 -0.105613 -0.010958 0.000000 0.000000 0.000000 0.000000 0.000000 0.000000 0.000000 19.646077 -6.822505 0.744371 66.856967 -4.913804 -7.122233 4.063267 10.363923 0.004632 0.474654 2.198210 0.007304 0.107145 -0.013977 -0.000000 0.000000 0.000000 0.000000 0.000000 0.000000 0.000000 
-0.233824 16.818602 0.608546 20.734743 76.009728 31.977604 -11.158950 3.481373 -1.325158 -2.038348 10.859096 -10.109725 0.341150 2.316164 46.255001 1.586868 1.932461 26.001058 0.206600 -0.000000 -64.367100 8.117495 -0.812161 3.104071 17.760130 5.611859 -31.040676 2.769113 0.725320 11.815729 -2.798069 -8.738902 -13.571025 -179.657600 -0.000000 -0.746000 0.239424 -3.535507 -2.061207 -0.651655 -3.673191 -3.231594 -6.960737 -3.745182 0.947117 9.565425 -7.115342 -6.618704 -4.398450 -0.350492 0.258573 0.000000 0.000000 0.000000 -5.415789 5.666961 1.495780 -58.114916 3.458100 14.421113 -2.841030 -37.462418 0.002078 7.244121 0.682062 0.045443 -0.102868 -0.014519 0.000000 0.000000 0.000000 0.000000 0.000000 0.000000 0.000000 19.597461 -6.415652 0.751050 67.045735 -4.404311 -6.662656 4.081166 10.550732 0.004625 0.675448 2.168367 0.011115 0.106138 -0.015313 -0.000000 0.000000 0.000000 0.000000 0.000000 0.000000 0.000000 
-0.013323 16.826623 0.690453 17.769067 75.103062 29.347872 -11.312718 3.294546 -1.262258 -1.829069 10.500169 -12.108123 0.460938 2.413401 49.112994 1.754402 3.739983 25.647845 1.084000 -0.000000 -58.789300 7.904554 -0.933617 3.216974 18.448253 6.436028 -30.835407 2.874105 0.612951 12.926359 -2.674219 -8.079429 -13.825341 -179.608800 -0.000000 -2.607000 0.651860 -3.300366 -2.287758 -0.586693 -3.476013 -3.285282 -6.970886 -3.550062 0.943920 9.566462 -6.874191 -6.601500 -4.410955 -0.352133 0.265419 0.000000 0.000000 0.000000 -5.455557 5.981429 1.467639 -58.736214 3.877388 14.086241 -2.838719 -36.676112 0.002258 7.302279 0.804121 0.053901 -0.100005 -0.017871 0.000000 0.000000 0.000000 0.000000 0.000000 0.000000 0.000000 19.594023 -6.010280 0.765143 67.254964 -3.766098 -6.118490 4.089387 10.740959 0.004689 0.862682 2.175187 0.014728 0.104774 -0.017087 -0.000000 0.000000 0.000000 0.000000 0.000000 0.000000 0.000000 
0.201578 16.836510 0.775258 15.281154 74.146316 27.197982 -11.413790 3.099427 -1.192342 -1.746505 9.992529 -14.114098 0.572522 2.516580 51.716864 1.910983 5.782537 24.723356 2.050500 0.000000 -54.032700 7.733427 -1.025987 3.304721 19.075925 7.146899 -30.517224 2.968513 0.526456 13.823790 -2.559585 -7.446371 -14.131102 -179.554300 0.000000 -4.628700 0.973227 -3.081943 -2.482080 -0.540194 -3.289270 -3.331630 -6.990241 -3.365667 0.935021 9.617784 -6.594517 -6.576813 -4.425252 -0.353884 0.273440 0.000000 0.000000 0.000000 -5.420999 6.276648 1.450710 -59.377225 4.327608 13.767948 -2.838501 -35.889174 0.002405 7.324410 0.932602 0.062461 -0.097270 -0.021002 0.000000 0.000000 0.000000 0.000000 0.000000 0.000000 0.000000 19.645394 -5.567059 0.782407 67.503684 -3.057576 -5.654582 4.088382 10.945129 0.004831 1.054298 2.221205 0.018843 0.102896 -0.019462 -0.000000 0.000000 0.000000 0.000000 0.000000 0.000000 0.000000 
0.411302 16.848430 0.863598 13.293024 73.175517 25.546508 -11.467029 2.896519 -1.108986 -1.777029 9.310602 -16.113457 0.678822 2.619014 54.029650 2.055977 7.908757 23.275834 2.982100 0.000000 -49.978900 7.602516 -1.090188 3.368729 19.614501 7.755993 -30.053792 3.047919 0.472899 14.452747 -2.462038 -6.886541 -14.457548 -179.499700 -0.000000 -6.748300 1.187267 -2.890525 -2.652285 -0.514246 -3.122062 -3.370022 -7.017848 -3.200964 0.927646 9.719376 -6.340562 -6.555908 -4.440580 -0.355631 0.279914 0.000000 0.000000 0.000000 -5.328643 6.524854 1.440397 -60.011434 4.839712 13.465840 -2.839860 -35.140498 0.002540 7.291365 1.066250 0.071022 -0.094609 -0.024165 0.000000 0.000000 0.000000 0.000000 0.000000 0.000000 0.000000 19.761020 -5.160906 0.801962 67.772711 -2.223686 -5.098008 4.075257 11.146880 0.005050 1.212195 2.311929 0.022860 0.100701 -0.022232 -0.000000 0.000000 0.000000 0.000000 0.000000 0.000000 0.000000 
0.616318 16.862447 0.955919 11.792071 72.219538 24.375779 -11.477244 2.687328 -1.002947 -1.904117 8.427049 -18.086812 0.778417 2.712695 56.009141 2.189956 9.987570 21.394469 3.775899 0.000000 -46.712200 7.510235 -1.127655 3.409649 20.041774 8.269915 -29.427241 3.110276 0.455982 14.780909 -2.382396 -6.418446 -14.767392 -179.450299 0.000000 -8.826701 1.285331 -2.732914 -2.809461 -0.510290 -2.980737 -3.404241 -7.054428 -3.062651 0.915630 9.863453 -6.053708 -6.523250 -4.459752 -0.357694 0.288847 0.000000 0.000000 0.000000 -5.187988 6.747563 1.442903 -60.615043 5.384263 13.236931 -2.846624 -34.414951 0.002649 7.191431 1.200710 0.078786 -0.092239 -0.027315 0.000000 0.000000 0.000000 0.000000 0.000000 0.000000 0.000000 19.936483 -4.733158 0.818945 68.083304 -1.350560 -4.648594 4.052622 11.371174 0.005336 1.369194 2.439320 0.027678 0.098012 -0.025533 -0.000000 0.000000 0.000000 0.000000 0.000000 0.000000 0.000000 
